<?xml version="1.0" encoding="UTF-8" standalone="no"?><!DOCTYPE svg PUBLIC "-//W3C//DTD SVG 1.1//EN" "http://www.w3.org/Graphics/SVG/1.1/DTD/svg11.dtd"><svg width="100%" height="100%" viewBox="0 0 240 56" version="1.1" xmlns="http://www.w3.org/2000/svg" xmlns:xlink="http://www.w3.org/1999/xlink" xml:space="preserve" xmlns:serif="http://www.serif.com/" style="fill-rule:evenodd;clip-rule:evenodd;stroke-linejoin:round;stroke-miterlimit:1.41421;"><path d="M28.6,9c-6.966,0 -12.6,5.634 -12.6,12.6c0,9.45 12.6,23.4 12.6,23.4c0,0 12.6,-13.95 12.6,-23.4c0,-6.966 -5.634,-12.6 -12.6,-12.6Zm0,17.1c-2.484,0 -4.5,-2.016 -4.5,-4.5c0,-2.484 2.016,-4.5 4.5,-4.5c2.484,0 4.5,2.016 4.5,4.5c0,2.484 -2.016,4.5 -4.5,4.5Z" style="fill:#c83d4b;fill-rule:nonzero;"/><rect x="108" y="16" width="24" height="24" style="fill:none;"/><text x="47.146px" y="41.734px" style="font-family:'HelveticaNeue', 'Helvetica Neue';font-size:38.347px;fill:#8694a9;">Occasions</text></svg>