<?xml version="1.0" encoding="UTF-8" standalone="no"?><!DOCTYPE svg PUBLIC "-//W3C//DTD SVG 1.1//EN" "http://www.w3.org/Graphics/SVG/1.1/DTD/svg11.dtd"><svg width="100%" height="100%" viewBox="0 0 240 56" version="1.1" xmlns="http://www.w3.org/2000/svg" xmlns:xlink="http://www.w3.org/1999/xlink" xml:space="preserve" xmlns:serif="http://www.serif.com/" style="fill-rule:evenodd;clip-rule:evenodd;stroke-linejoin:round;stroke-miterlimit:1.41421;"><path d="M28.6,9c-6.966,0 -12.6,5.634 -12.6,12.6c0,9.45 12.6,23.4 12.6,23.4c0,0 12.6,-13.95 12.6,-23.4c0,-6.966 -5.634,-12.6 -12.6,-12.6Zm0,17.1c-2.484,0 -4.5,-2.016 -4.5,-4.5c0,-2.484 2.016,-4.5 4.5,-4.5c2.484,0 4.5,2.016 4.5,4.5c0,2.484 -2.016,4.5 -4.5,4.5Z" style="fill:#c83d4b;fill-rule:nonzero;"/><rect x="108" y="16" width="24" height="24" style="fill:none;"/><g><path d="M52.246,28.044c0,-1.38 0.179,-2.742 0.537,-4.084c0.358,-1.342 0.921,-2.55 1.688,-3.623c0.766,-1.074 1.751,-1.937 2.952,-2.589c1.202,-0.652 2.633,-0.978 4.295,-0.978c1.662,0 3.093,0.326 4.295,0.978c1.201,0.652 2.186,1.515 2.953,2.589c0.767,1.073 1.329,2.281 1.687,3.623c0.358,1.342 0.537,2.704 0.537,4.084c0,1.381 -0.179,2.742 -0.537,4.084c-0.358,1.342 -0.92,2.55 -1.687,3.624c-0.767,1.074 -1.752,1.936 -2.953,2.588c-1.202,0.652 -2.633,0.978 -4.295,0.978c-1.662,0 -3.093,-0.326 -4.295,-0.978c-1.201,-0.652 -2.186,-1.514 -2.952,-2.588c-0.767,-1.074 -1.33,-2.282 -1.688,-3.624c-0.358,-1.342 -0.537,-2.703 -0.537,-4.084Zm-3.642,0c0,1.866 0.274,3.662 0.824,5.388c0.55,1.726 1.374,3.253 2.473,4.582c1.1,1.33 2.467,2.384 4.103,3.164c1.637,0.78 3.541,1.17 5.714,1.17c2.173,0 4.078,-0.39 5.714,-1.17c1.636,-0.78 3.004,-1.834 4.103,-3.164c1.099,-1.329 1.924,-2.856 2.473,-4.582c0.55,-1.726 0.825,-3.522 0.825,-5.388c0,-1.866 -0.275,-3.662 -0.825,-5.387c-0.549,-1.726 -1.374,-3.254 -2.473,-4.583c-1.099,-1.329 -2.467,-2.39 -4.103,-3.183c-1.636,-0.792 -3.541,-1.188 -5.714,-1.188c-2.173,0 -4.077,0.396 -5.714,1.188c-1.636,0.793 -3.003,1.854 -4.103,3.183c-1.099,1.329 -1.923,2.857 -2.473,4.583c-0.55,1.725 -0.824,3.521 -0.824,5.387Z" style="fill:#8694a9;fill-rule:nonzero;"/><path d="M92.204,28.274l3.374,0c-0.128,-1.176 -0.434,-2.192 -0.92,-3.048c-0.486,-0.857 -1.106,-1.566 -1.86,-2.128c-0.754,-0.563 -1.623,-0.978 -2.607,-1.247c-0.985,-0.268 -2.039,-0.402 -3.164,-0.402c-1.56,0 -2.927,0.274 -4.103,0.824c-1.176,0.55 -2.154,1.304 -2.934,2.263c-0.779,0.958 -1.361,2.083 -1.744,3.374c-0.384,1.291 -0.576,2.678 -0.576,4.161c0,1.482 0.198,2.844 0.595,4.084c0.396,1.239 0.984,2.307 1.764,3.202c0.779,0.894 1.751,1.585 2.914,2.07c1.163,0.486 2.499,0.729 4.007,0.729c2.531,0 4.532,-0.665 6.001,-1.994c1.47,-1.33 2.384,-3.221 2.742,-5.675l-3.336,0c-0.204,1.533 -0.76,2.722 -1.668,3.566c-0.908,0.843 -2.167,1.265 -3.777,1.265c-1.023,0 -1.905,-0.204 -2.646,-0.613c-0.741,-0.409 -1.342,-0.953 -1.802,-1.63c-0.461,-0.678 -0.799,-1.451 -1.017,-2.32c-0.217,-0.869 -0.325,-1.764 -0.325,-2.684c0,-0.997 0.102,-1.962 0.306,-2.896c0.205,-0.933 0.544,-1.757 1.016,-2.473c0.473,-0.716 1.106,-1.291 1.899,-1.725c0.792,-0.435 1.776,-0.652 2.952,-0.652c1.381,0 2.48,0.345 3.298,1.035c0.818,0.69 1.355,1.662 1.611,2.914Z" style="fill:#8694a9;fill-rule:nonzero;"/><path d="M112.796,28.274l3.374,0c-0.127,-1.176 -0.434,-2.192 -0.92,-3.048c-0.486,-0.857 -1.106,-1.566 -1.86,-2.128c-0.754,-0.563 -1.623,-0.978 -2.607,-1.247c-0.985,-0.268 -2.039,-0.402 -3.164,-0.402c-1.559,0 -2.927,0.274 -4.103,0.824c-1.176,0.55 -2.154,1.304 -2.934,2.263c-0.779,0.958 -1.361,2.083 -1.744,3.374c-0.384,1.291 -0.576,2.678 -0.576,4.161c0,1.482 0.199,2.844 0.595,4.084c0.396,1.239 0.984,2.307 1.764,3.202c0.78,0.894 1.751,1.585 2.914,2.07c1.163,0.486 2.499,0.729 4.007,0.729c2.531,0 4.532,-0.665 6.002,-1.994c1.47,-1.33 2.384,-3.221 2.741,-5.675l-3.336,0c-0.204,1.533 -0.76,2.722 -1.668,3.566c-0.907,0.843 -2.166,1.265 -3.777,1.265c-1.023,0 -1.905,-0.204 -2.646,-0.613c-0.741,-0.409 -1.342,-0.953 -1.802,-1.63c-0.46,-0.678 -0.799,-1.451 -1.016,-2.32c-0.218,-0.869 -0.326,-1.764 -0.326,-2.684c0,-0.997 0.102,-1.962 0.306,-2.896c0.205,-0.933 0.544,-1.757 1.017,-2.473c0.473,-0.716 1.105,-1.291 1.898,-1.725c0.792,-0.435 1.777,-0.652 2.953,-0.652c1.38,0 2.479,0.345 3.297,1.035c0.818,0.69 1.355,1.662 1.611,2.914Z" style="fill:#8694a9;fill-rule:nonzero;"/><path d="M137.491,41.657c-0.562,0.333 -1.342,0.499 -2.339,0.499c-0.844,0 -1.515,-0.237 -2.013,-0.71c-0.499,-0.473 -0.748,-1.246 -0.748,-2.32c-0.895,1.074 -1.936,1.847 -3.125,2.32c-1.189,0.473 -2.474,0.71 -3.854,0.71c-0.895,0 -1.745,-0.102 -2.55,-0.307c-0.805,-0.204 -1.502,-0.524 -2.09,-0.959c-0.588,-0.434 -1.055,-1.003 -1.4,-1.706c-0.345,-0.703 -0.517,-1.553 -0.517,-2.55c0,-1.125 0.191,-2.045 0.575,-2.761c0.383,-0.716 0.888,-1.297 1.515,-1.745c0.626,-0.447 1.342,-0.786 2.147,-1.016c0.805,-0.23 1.63,-0.422 2.473,-0.575c0.895,-0.179 1.745,-0.313 2.55,-0.403c0.806,-0.089 1.515,-0.217 2.129,-0.383c0.613,-0.166 1.099,-0.409 1.457,-0.729c0.358,-0.319 0.537,-0.786 0.537,-1.4c0,-0.715 -0.135,-1.291 -0.403,-1.725c-0.268,-0.435 -0.614,-0.767 -1.035,-0.997c-0.422,-0.23 -0.895,-0.384 -1.419,-0.46c-0.524,-0.077 -1.042,-0.115 -1.553,-0.115c-1.381,0 -2.531,0.262 -3.451,0.786c-0.921,0.524 -1.419,1.514 -1.496,2.972l-3.259,0c0.051,-1.227 0.306,-2.263 0.767,-3.106c0.46,-0.844 1.073,-1.528 1.84,-2.052c0.767,-0.524 1.643,-0.901 2.627,-1.131c0.984,-0.23 2.039,-0.345 3.164,-0.345c0.894,0 1.783,0.064 2.665,0.191c0.882,0.128 1.681,0.39 2.396,0.786c0.716,0.397 1.291,0.953 1.726,1.669c0.435,0.715 0.652,1.648 0.652,2.799l0,10.2c0,0.767 0.045,1.329 0.134,1.687c0.089,0.358 0.39,0.537 0.901,0.537c0.281,0 0.614,-0.064 0.997,-0.192l0,2.531Zm-5.292,-10.162c-0.409,0.307 -0.946,0.531 -1.61,0.672c-0.665,0.14 -1.362,0.255 -2.09,0.345c-0.729,0.089 -1.464,0.191 -2.205,0.306c-0.741,0.115 -1.406,0.301 -1.994,0.556c-0.588,0.256 -1.067,0.62 -1.438,1.093c-0.371,0.473 -0.556,1.119 -0.556,1.937c0,0.537 0.109,0.99 0.326,1.361c0.217,0.371 0.498,0.671 0.843,0.901c0.346,0.23 0.748,0.397 1.208,0.499c0.461,0.102 0.946,0.153 1.458,0.153c1.073,0 1.994,-0.147 2.761,-0.441c0.766,-0.294 1.393,-0.664 1.879,-1.112c0.485,-0.447 0.843,-0.933 1.073,-1.457c0.23,-0.524 0.345,-1.016 0.345,-1.476l0,-3.337Z" style="fill:#8694a9;fill-rule:nonzero;"/><path d="M142.515,35.484l-3.26,0c0.051,1.227 0.307,2.268 0.767,3.125c0.46,0.856 1.074,1.546 1.841,2.071c0.767,0.524 1.649,0.901 2.646,1.131c0.997,0.23 2.045,0.345 3.144,0.345c0.997,0 2,-0.096 3.01,-0.288c1.01,-0.191 1.918,-0.53 2.723,-1.016c0.805,-0.486 1.457,-1.125 1.956,-1.917c0.498,-0.793 0.747,-1.79 0.747,-2.991c0,-0.946 -0.185,-1.739 -0.556,-2.378c-0.37,-0.639 -0.856,-1.169 -1.457,-1.591c-0.601,-0.422 -1.291,-0.761 -2.071,-1.016c-0.779,-0.256 -1.578,-0.473 -2.396,-0.652c-0.767,-0.179 -1.534,-0.352 -2.301,-0.518c-0.767,-0.166 -1.457,-0.371 -2.071,-0.614c-0.613,-0.242 -1.118,-0.549 -1.514,-0.92c-0.397,-0.371 -0.595,-0.837 -0.595,-1.399c0,-0.512 0.128,-0.927 0.384,-1.247c0.255,-0.319 0.588,-0.575 0.997,-0.767c0.409,-0.191 0.862,-0.326 1.361,-0.402c0.498,-0.077 0.991,-0.115 1.476,-0.115c0.537,0 1.068,0.057 1.592,0.172c0.524,0.115 1.003,0.301 1.438,0.556c0.434,0.256 0.792,0.595 1.073,1.016c0.282,0.422 0.448,0.953 0.499,1.592l3.259,0c-0.076,-1.202 -0.332,-2.205 -0.767,-3.01c-0.434,-0.806 -1.016,-1.445 -1.744,-1.918c-0.729,-0.473 -1.566,-0.805 -2.512,-0.997c-0.946,-0.192 -1.981,-0.287 -3.106,-0.287c-0.869,0 -1.745,0.108 -2.627,0.326c-0.882,0.217 -1.674,0.549 -2.377,0.997c-0.703,0.447 -1.279,1.029 -1.726,1.744c-0.447,0.716 -0.671,1.573 -0.671,2.57c0,1.278 0.32,2.275 0.959,2.991c0.639,0.715 1.438,1.271 2.396,1.668c0.959,0.396 2.001,0.703 3.126,0.92c1.124,0.217 2.166,0.46 3.125,0.729c0.958,0.268 1.757,0.62 2.396,1.054c0.64,0.435 0.959,1.074 0.959,1.918c0,0.613 -0.153,1.118 -0.46,1.514c-0.307,0.396 -0.697,0.697 -1.17,0.901c-0.473,0.205 -0.99,0.345 -1.553,0.422c-0.562,0.077 -1.099,0.115 -1.61,0.115c-0.665,0 -1.31,-0.064 -1.937,-0.192c-0.626,-0.127 -1.188,-0.338 -1.687,-0.632c-0.498,-0.294 -0.901,-0.69 -1.208,-1.189c-0.307,-0.499 -0.473,-1.106 -0.498,-1.821Z" style="fill:#8694a9;fill-rule:nonzero;"/><path d="M163.145,18.343l0,-3.989l-3.259,0l0,3.989l3.259,0Zm-3.259,3.566l0,19.825l3.259,0l0,-19.825l-3.259,0Z" style="fill:#8694a9;fill-rule:nonzero;"/><path d="M170.584,31.841c0,-1.202 0.16,-2.269 0.48,-3.202c0.319,-0.933 0.76,-1.72 1.323,-2.359c0.562,-0.639 1.22,-1.125 1.975,-1.457c0.754,-0.332 1.553,-0.498 2.396,-0.498c0.844,0 1.643,0.166 2.397,0.498c0.754,0.332 1.412,0.818 1.975,1.457c0.562,0.639 1.003,1.426 1.323,2.359c0.319,0.933 0.479,2 0.479,3.202c0,1.201 -0.16,2.268 -0.479,3.202c-0.32,0.933 -0.761,1.712 -1.323,2.339c-0.563,0.626 -1.221,1.105 -1.975,1.438c-0.754,0.332 -1.553,0.498 -2.397,0.498c-0.843,0 -1.642,-0.166 -2.396,-0.498c-0.755,-0.333 -1.413,-0.812 -1.975,-1.438c-0.563,-0.627 -1.004,-1.406 -1.323,-2.339c-0.32,-0.934 -0.48,-2.001 -0.48,-3.202Zm-3.451,0c0,1.457 0.205,2.812 0.614,4.064c0.409,1.253 1.022,2.346 1.84,3.279c0.818,0.933 1.828,1.662 3.03,2.186c1.201,0.524 2.582,0.786 4.141,0.786c1.585,0 2.972,-0.262 4.161,-0.786c1.189,-0.524 2.192,-1.253 3.01,-2.186c0.818,-0.933 1.432,-2.026 1.841,-3.279c0.409,-1.252 0.613,-2.607 0.613,-4.064c0,-1.458 -0.204,-2.819 -0.613,-4.084c-0.409,-1.266 -1.023,-2.365 -1.841,-3.298c-0.818,-0.933 -1.821,-1.668 -3.01,-2.205c-1.189,-0.537 -2.576,-0.805 -4.161,-0.805c-1.559,0 -2.94,0.268 -4.141,0.805c-1.202,0.537 -2.212,1.272 -3.03,2.205c-0.818,0.933 -1.431,2.032 -1.84,3.298c-0.409,1.265 -0.614,2.626 -0.614,4.084Z" style="fill:#8694a9;fill-rule:nonzero;"/><path d="M190.218,21.909l0,19.825l3.259,0l0,-11.197c0,-0.895 0.122,-1.719 0.365,-2.474c0.243,-0.754 0.607,-1.412 1.093,-1.974c0.485,-0.563 1.092,-0.997 1.821,-1.304c0.729,-0.307 1.591,-0.46 2.588,-0.46c1.253,0 2.237,0.358 2.953,1.073c0.716,0.716 1.074,1.688 1.074,2.915l0,13.421l3.259,0l0,-13.038c0,-1.074 -0.108,-2.051 -0.326,-2.933c-0.217,-0.882 -0.594,-1.643 -1.131,-2.282c-0.537,-0.639 -1.24,-1.138 -2.109,-1.496c-0.869,-0.357 -1.956,-0.536 -3.259,-0.536c-2.94,0 -5.088,1.201 -6.443,3.604l-0.076,0l0,-3.144l-3.068,0Z" style="fill:#8694a9;fill-rule:nonzero;"/><path d="M213.533,35.484l-3.26,0c0.051,1.227 0.307,2.268 0.767,3.125c0.46,0.856 1.074,1.546 1.841,2.071c0.767,0.524 1.649,0.901 2.646,1.131c0.997,0.23 2.045,0.345 3.144,0.345c0.997,0 2.001,-0.096 3.01,-0.288c1.01,-0.191 1.918,-0.53 2.723,-1.016c0.805,-0.486 1.457,-1.125 1.956,-1.917c0.498,-0.793 0.747,-1.79 0.747,-2.991c0,-0.946 -0.185,-1.739 -0.556,-2.378c-0.37,-0.639 -0.856,-1.169 -1.457,-1.591c-0.601,-0.422 -1.291,-0.761 -2.07,-1.016c-0.78,-0.256 -1.579,-0.473 -2.397,-0.652c-0.767,-0.179 -1.534,-0.352 -2.301,-0.518c-0.767,-0.166 -1.457,-0.371 -2.071,-0.614c-0.613,-0.242 -1.118,-0.549 -1.514,-0.92c-0.397,-0.371 -0.595,-0.837 -0.595,-1.399c0,-0.512 0.128,-0.927 0.384,-1.247c0.255,-0.319 0.588,-0.575 0.997,-0.767c0.409,-0.191 0.863,-0.326 1.361,-0.402c0.499,-0.077 0.991,-0.115 1.476,-0.115c0.537,0 1.068,0.057 1.592,0.172c0.524,0.115 1.003,0.301 1.438,0.556c0.434,0.256 0.792,0.595 1.074,1.016c0.281,0.422 0.447,0.953 0.498,1.592l3.259,0c-0.076,-1.202 -0.332,-2.205 -0.766,-3.01c-0.435,-0.806 -1.017,-1.445 -1.745,-1.918c-0.729,-0.473 -1.566,-0.805 -2.512,-0.997c-0.946,-0.192 -1.981,-0.287 -3.106,-0.287c-0.869,0 -1.745,0.108 -2.627,0.326c-0.882,0.217 -1.674,0.549 -2.377,0.997c-0.703,0.447 -1.278,1.029 -1.726,1.744c-0.447,0.716 -0.671,1.573 -0.671,2.57c0,1.278 0.32,2.275 0.959,2.991c0.639,0.715 1.438,1.271 2.396,1.668c0.959,0.396 2.001,0.703 3.126,0.92c1.124,0.217 2.166,0.46 3.125,0.729c0.959,0.268 1.757,0.62 2.397,1.054c0.639,0.435 0.958,1.074 0.958,1.918c0,0.613 -0.153,1.118 -0.46,1.514c-0.307,0.396 -0.697,0.697 -1.169,0.901c-0.473,0.205 -0.991,0.345 -1.554,0.422c-0.562,0.077 -1.099,0.115 -1.61,0.115c-0.665,0 -1.31,-0.064 -1.937,-0.192c-0.626,-0.127 -1.188,-0.338 -1.687,-0.632c-0.498,-0.294 -0.901,-0.69 -1.208,-1.189c-0.307,-0.499 -0.473,-1.106 -0.498,-1.821Z" style="fill:#8694a9;fill-rule:nonzero;"/></g></svg>